{
	"asset":{
		"version":"2.0",
		"generator":"Created using the official Cinema 4D glTF Exporter 1.000x290161"
	},
	"scenes":[{
		"nodes":[0,
		1]
	}],
	"nodes":[{
		"name":"Camera",
		"translation":[-0.32534870505332949,
		9.07748031616211,
		643.80859375],
		"rotation":[-0.007715706247836351,
		-0.002309363568201661,
		-0.000017837197447079234,
		0.9999675750732422],
		"scale":[1.0,
		1.0,
		1.0],
		"camera":0
	},
	{
		"name":"logo.1",
		"translation":[0.0,
		0.0,
		0.0],
		"rotation":[0.0,
		-5.665538686387998e-16,
		0.0,
		1.0],
		"scale":[1.0,
		1.0,
		1.0],
		"children":[2,
		7]
	},
	{
		"name":"L",
		"translation":[57.454837799072269,
		-4.399693012237549,
		0.4652053713798523],
		"rotation":[0.0,
		0.0,
		0.0,
		-1.0],
		"scale":[1.0,
		1.0,
		1.0],
		"mesh":0,
		"children":[3,
		5]
	},
	{
		"name":"Rounding 1",
		"translation":[5.848914764550301e-31,
		-1.4791141972893972e-31,
		0.0],
		"rotation":[0.0,
		0.0,
		0.0,
		-1.0],
		"scale":[1.0,
		1.0,
		1.0],
		"mesh":1,
		"children":[4]
	},
	{
		"name":"Cap 1",
		"mesh":2
	},
	{
		"name":"Rounding 2",
		"translation":[5.848914764550301e-31,
		-1.4791141972893972e-31,
		0.0],
		"rotation":[0.0,
		0.0,
		0.0,
		-1.0],
		"scale":[1.0,
		1.0,
		1.0],
		"mesh":3,
		"children":[6]
	},
	{
		"name":"Cap 2",
		"mesh":4
	},
	{
		"name":"Tube",
		"translation":[0.0,
		0.0,
		0.0],
		"rotation":[-0.7071067690849304,
		0.0,
		0.0,
		-0.7071067690849304],
		"scale":[1.0,
		1.0,
		1.0],
		"mesh":5
	}],
	"meshes":[{
		"primitives":[{
			"attributes":{
				"POSITION":1,
				"NORMAL":2,
				"TEXCOORD_0":3
			},
			"indices":0,
			"material":0
		}]
	},
	{
		"primitives":[{
			"attributes":{
				"POSITION":5,
				"NORMAL":6,
				"TEXCOORD_0":7
			},
			"indices":4,
			"material":0
		}]
	},
	{
		"primitives":[{
			"attributes":{
				"POSITION":9,
				"NORMAL":10,
				"TEXCOORD_0":11
			},
			"indices":8,
			"material":0
		}]
	},
	{
		"primitives":[{
			"attributes":{
				"POSITION":13,
				"NORMAL":14,
				"TEXCOORD_0":15
			},
			"indices":12,
			"material":0
		}]
	},
	{
		"primitives":[{
			"attributes":{
				"POSITION":17,
				"NORMAL":18,
				"TEXCOORD_0":19
			},
			"indices":16,
			"material":0
		}]
	},
	{
		"primitives":[{
			"attributes":{
				"POSITION":21,
				"NORMAL":22,
				"TEXCOORD_0":23
			},
			"indices":20,
			"material":0
		}]
	}],
	"cameras":[{
		"type":"orthographic",
		"orthographic":{
			"znear":0.0,
			"zfar":10000000000.0,
			"xmag":131.527099609375,
			"ymag":131.527099609375
		}
	}],
	"accessors":[{
		"bufferView":0,
		"type":"SCALAR",
		"componentType":5123,
		"count":18,
		"byteOffset":0,
		"min":[0],
		"max":[11]
	},
	{
		"bufferView":1,
		"type":"VEC3",
		"componentType":5126,
		"count":12,
		"byteOffset":0,
		"min":[-83.41650390625,
		-25.195350646972658,
		-4.524351119995117],
		"max":[-19.69753074645996,
		25.13794708251953,
		5.681110858917236]
	},
	{
		"bufferView":1,
		"type":"VEC3",
		"componentType":5126,
		"count":12,
		"byteOffset":12,
		"min":[-0.9999971985816956,
		-0.7858783006668091,
		0.0],
		"max":[0.6183812618255615,
		0.9999952912330627,
		0.0]
	},
	{
		"bufferView":1,
		"type":"VEC2",
		"componentType":5126,
		"count":12,
		"byteOffset":24,
		"min":[0.0,
		0.0],
		"max":[1.0,
		1.0]
	},
	{
		"bufferView":2,
		"type":"SCALAR",
		"componentType":5123,
		"count":18,
		"byteOffset":0,
		"min":[0],
		"max":[11]
	},
	{
		"bufferView":3,
		"type":"VEC3",
		"componentType":5126,
		"count":12,
		"byteOffset":0,
		"min":[-83.41650390625,
		-25.195350646972658,
		5.475648880004883],
		"max":[-19.69753074645996,
		25.13794708251953,
		5.980098724365234]
	},
	{
		"bufferView":3,
		"type":"VEC3",
		"componentType":5126,
		"count":12,
		"byteOffset":12,
		"min":[-0.7512328028678894,
		-0.6570342183113098,
		0.5470421314239502],
		"max":[0.5187012553215027,
		0.8364430665969849,
		0.7093877196311951]
	},
	{
		"bufferView":3,
		"type":"VEC2",
		"componentType":5126,
		"count":12,
		"byteOffset":24,
		"min":[0.0,
		0.0],
		"max":[1.0,
		1.0]
	},
	{
		"bufferView":4,
		"type":"SCALAR",
		"componentType":5123,
		"count":3,
		"byteOffset":0,
		"min":[0],
		"max":[2]
	},
	{
		"bufferView":5,
		"type":"VEC3",
		"componentType":5126,
		"count":3,
		"byteOffset":0,
		"min":[-83.15237426757813,
		-24.656185150146486,
		5.777450084686279],
		"max":[-20.263751983642579,
		24.837472915649415,
		5.980098724365234]
	},
	{
		"bufferView":5,
		"type":"VEC3",
		"componentType":5126,
		"count":3,
		"byteOffset":12,
		"min":[0.003230153815820813,
		-0.00014845981786493212,
		0.9999948740005493],
		"max":[0.003230153815820813,
		-0.00014845981786493212,
		0.9999948740005493]
	},
	{
		"bufferView":5,
		"type":"VEC2",
		"componentType":5126,
		"count":3,
		"byteOffset":24,
		"min":[0.0,
		0.0],
		"max":[0.8335374593734741,
		1.0]
	},
	{
		"bufferView":6,
		"type":"SCALAR",
		"componentType":5123,
		"count":18,
		"byteOffset":0,
		"min":[0],
		"max":[11]
	},
	{
		"bufferView":7,
		"type":"VEC3",
		"componentType":5126,
		"count":12,
		"byteOffset":0,
		"min":[-83.41650390625,
		-25.195350646972658,
		-4.822546482086182],
		"max":[-19.69753074645996,
		25.13794708251953,
		-4.318889141082764]
	},
	{
		"bufferView":7,
		"type":"VEC3",
		"componentType":5126,
		"count":12,
		"byteOffset":12,
		"min":[-0.7554810643196106,
		-0.6568740606307983,
		-0.7064298987388611],
		"max":[0.5151579976081848,
		0.836606502532959,
		-0.5478039979934692]
	},
	{
		"bufferView":7,
		"type":"VEC2",
		"componentType":5126,
		"count":12,
		"byteOffset":24,
		"min":[0.0,
		0.0],
		"max":[1.0,
		1.0]
	},
	{
		"bufferView":8,
		"type":"SCALAR",
		"componentType":5123,
		"count":3,
		"byteOffset":0,
		"min":[0],
		"max":[2]
	},
	{
		"bufferView":9,
		"type":"VEC3",
		"componentType":5126,
		"count":3,
		"byteOffset":0,
		"min":[-83.15431213378906,
		-24.656095504760743,
		-4.822546482086182],
		"max":[-20.265689849853517,
		24.837560653686525,
		-4.619898319244385]
	},
	{
		"bufferView":9,
		"type":"VEC3",
		"componentType":5126,
		"count":3,
		"byteOffset":12,
		"min":[-0.003230153815820813,
		0.00014845981786493212,
		-0.9999948740005493],
		"max":[-0.003230153815820813,
		0.00014845981786493212,
		-0.9999948740005493]
	},
	{
		"bufferView":9,
		"type":"VEC2",
		"componentType":5126,
		"count":3,
		"byteOffset":24,
		"min":[0.0,
		0.0],
		"max":[0.8335374593734741,
		1.0]
	},
	{
		"bufferView":10,
		"type":"SCALAR",
		"componentType":5123,
		"count":4800,
		"byteOffset":0,
		"min":[0],
		"max":[1615]
	},
	{
		"bufferView":11,
		"type":"VEC3",
		"componentType":5126,
		"count":1616,
		"byteOffset":0,
		"min":[-80.0,
		-7.5,
		-80.0],
		"max":[80.0,
		7.5,
		80.0]
	},
	{
		"bufferView":11,
		"type":"VEC3",
		"componentType":5126,
		"count":1616,
		"byteOffset":12,
		"min":[-0.9999451637268066,
		-1.0,
		-0.9999451637268066],
		"max":[0.9999451637268066,
		1.0,
		0.9999451637268066]
	},
	{
		"bufferView":11,
		"type":"VEC2",
		"componentType":5126,
		"count":1616,
		"byteOffset":24,
		"min":[0.0,
		0.0],
		"max":[1.0,
		1.0]
	}],
	"bufferViews":[{
		"buffer":0,
		"byteOffset":0,
		"byteLength":36,
		"target":34963
	},
	{
		"buffer":0,
		"byteOffset":36,
		"byteLength":384,
		"target":34962,
		"byteStride":32
	},
	{
		"buffer":1,
		"byteOffset":0,
		"byteLength":36,
		"target":34963
	},
	{
		"buffer":1,
		"byteOffset":36,
		"byteLength":384,
		"target":34962,
		"byteStride":32
	},
	{
		"buffer":2,
		"byteOffset":0,
		"byteLength":6,
		"target":34963
	},
	{
		"buffer":2,
		"byteOffset":8,
		"byteLength":96,
		"target":34962,
		"byteStride":32
	},
	{
		"buffer":3,
		"byteOffset":0,
		"byteLength":36,
		"target":34963
	},
	{
		"buffer":3,
		"byteOffset":36,
		"byteLength":384,
		"target":34962,
		"byteStride":32
	},
	{
		"buffer":4,
		"byteOffset":0,
		"byteLength":6,
		"target":34963
	},
	{
		"buffer":4,
		"byteOffset":8,
		"byteLength":96,
		"target":34962,
		"byteStride":32
	},
	{
		"buffer":5,
		"byteOffset":0,
		"byteLength":9600,
		"target":34963
	},
	{
		"buffer":5,
		"byteOffset":9600,
		"byteLength":51712,
		"target":34962,
		"byteStride":32
	}],
	"buffers":[{
		"uri":"data:application/octet-stream;base64,",
		"byteLength":420
	},
	{
		"uri":"data:application/octet-stream;base64,",
		"byteLength":420
	},
	{
		"uri":"data:application/octet-stream;base64,",
		"byteLength":104
	},
	{
		"uri":"data:application/octet-stream;base64,",
		"byteLength":420
	},
	{
		"uri":"data:application/octet-stream;base64,",
		"byteLength":104
	},
	{
		"uri":"data:application/octet-stream;base64,",
		"byteLength":61312
	}],
	"materials":[{
		"pbrMetallicRoughness":{
			"baseColorFactor":[0.07,
			0.07,
			0.07,
			1.0],
			"metallicFactor":0.0,
			"roughnessFactor":0.5
		},
		"emissiveFactor":[0.0,
		0.0,
		0.0],
		"alphaMode":"OPAQUE",
		"doubleSided":true,
		"name":"Mat"
	}]
}